<mxfile host="app.diagrams.net" modified="2024-05-30T16:54:38.865Z" agent="Mozilla/5.0 (Windows NT 10.0; Win64; x64) AppleWebKit/537.36 (KHTML, like Gecko) Chrome/124.0.0.0 Safari/537.36" etag="IbaXDfnH80VHdo6iXSsq" version="24.4.8" type="github">
  <diagram id="J299OrNDrJW-YTR5PU5g" name="Page-1">
    <mxGraphModel dx="3032" dy="1906" grid="1" gridSize="10" guides="1" tooltips="1" connect="1" arrows="1" fold="1" page="1" pageScale="0.5" pageWidth="850" pageHeight="1100" math="0" shadow="0">
      <root>
        <mxCell id="0" />
        <mxCell id="1" parent="0" />
        <mxCell id="KmuFEiy8gwxwUrOHWcom-100" value="" style="rounded=0;whiteSpace=wrap;html=1;fillColor=#EDEDED;" parent="1" vertex="1">
          <mxGeometry x="750" y="557" width="509" height="280" as="geometry" />
        </mxCell>
        <mxCell id="KmuFEiy8gwxwUrOHWcom-98" value="" style="rounded=0;whiteSpace=wrap;html=1;fillColor=#EDEDED;" parent="1" vertex="1">
          <mxGeometry x="570" y="-203" width="843" height="735" as="geometry" />
        </mxCell>
        <mxCell id="KmuFEiy8gwxwUrOHWcom-96" value="" style="rounded=0;whiteSpace=wrap;html=1;fillColor=#EDEDED;" parent="1" vertex="1">
          <mxGeometry x="68" y="-205" width="470" height="810" as="geometry" />
        </mxCell>
        <mxCell id="KmuFEiy8gwxwUrOHWcom-123" style="edgeStyle=orthogonalEdgeStyle;rounded=0;orthogonalLoop=1;jettySize=auto;html=1;entryX=0;entryY=0.107;entryDx=0;entryDy=0;entryPerimeter=0;" parent="1" source="KmuFEiy8gwxwUrOHWcom-1" target="KmuFEiy8gwxwUrOHWcom-4" edge="1">
          <mxGeometry relative="1" as="geometry" />
        </mxCell>
        <mxCell id="KmuFEiy8gwxwUrOHWcom-1" value="VAOS web" style="rounded=0;whiteSpace=wrap;html=1;" parent="1" vertex="1">
          <mxGeometry x="118" y="-93" width="120" height="60" as="geometry" />
        </mxCell>
        <mxCell id="KmuFEiy8gwxwUrOHWcom-121" style="edgeStyle=orthogonalEdgeStyle;rounded=0;orthogonalLoop=1;jettySize=auto;html=1;entryX=0.008;entryY=0.321;entryDx=0;entryDy=0;entryPerimeter=0;" parent="1" source="KmuFEiy8gwxwUrOHWcom-2" target="KmuFEiy8gwxwUrOHWcom-4" edge="1">
          <mxGeometry relative="1" as="geometry" />
        </mxCell>
        <mxCell id="KmuFEiy8gwxwUrOHWcom-2" value="Dashboard" style="rounded=0;whiteSpace=wrap;html=1;" parent="1" vertex="1">
          <mxGeometry x="118" y="52" width="120" height="60" as="geometry" />
        </mxCell>
        <mxCell id="KmuFEiy8gwxwUrOHWcom-89" style="edgeStyle=orthogonalEdgeStyle;rounded=0;orthogonalLoop=1;jettySize=auto;html=1;entryX=-0.013;entryY=0.443;entryDx=0;entryDy=0;entryPerimeter=0;" parent="1" source="KmuFEiy8gwxwUrOHWcom-3" target="KmuFEiy8gwxwUrOHWcom-4" edge="1">
          <mxGeometry relative="1" as="geometry">
            <mxPoint x="348" y="116" as="targetPoint" />
          </mxGeometry>
        </mxCell>
        <mxCell id="KmuFEiy8gwxwUrOHWcom-3" value="Flagship mobile app" style="rounded=0;whiteSpace=wrap;html=1;" parent="1" vertex="1">
          <mxGeometry x="-102" y="135" width="120" height="60" as="geometry" />
        </mxCell>
        <mxCell id="KmuFEiy8gwxwUrOHWcom-90" style="edgeStyle=orthogonalEdgeStyle;rounded=0;orthogonalLoop=1;jettySize=auto;html=1;entryX=0;entryY=0.75;entryDx=0;entryDy=0;exitX=0.994;exitY=0.453;exitDx=0;exitDy=0;exitPerimeter=0;" parent="1" source="KmuFEiy8gwxwUrOHWcom-4" target="KmuFEiy8gwxwUrOHWcom-22" edge="1">
          <mxGeometry relative="1" as="geometry">
            <Array as="points">
              <mxPoint x="480" y="173" />
              <mxPoint x="480" y="173" />
            </Array>
            <mxPoint x="470" y="180" as="sourcePoint" />
          </mxGeometry>
        </mxCell>
        <mxCell id="KmuFEiy8gwxwUrOHWcom-91" style="edgeStyle=orthogonalEdgeStyle;rounded=0;orthogonalLoop=1;jettySize=auto;html=1;entryX=0;entryY=0.5;entryDx=0;entryDy=0;exitX=1;exitY=0.5;exitDx=0;exitDy=0;" parent="1" source="r6deMkh1V9EVogIIxijR-24" target="KmuFEiy8gwxwUrOHWcom-60" edge="1">
          <mxGeometry relative="1" as="geometry">
            <Array as="points">
              <mxPoint x="689" y="55" />
              <mxPoint x="689" y="55" />
            </Array>
            <mxPoint x="689" y="-25" as="sourcePoint" />
          </mxGeometry>
        </mxCell>
        <mxCell id="KmuFEiy8gwxwUrOHWcom-93" style="edgeStyle=orthogonalEdgeStyle;rounded=0;orthogonalLoop=1;jettySize=auto;html=1;entryX=0;entryY=0.5;entryDx=0;entryDy=0;exitX=1;exitY=0.546;exitDx=0;exitDy=0;exitPerimeter=0;" parent="1" source="KmuFEiy8gwxwUrOHWcom-4" target="KmuFEiy8gwxwUrOHWcom-26" edge="1">
          <mxGeometry relative="1" as="geometry">
            <Array as="points">
              <mxPoint x="467" y="236" />
            </Array>
            <mxPoint x="468" y="306.99999999999955" as="sourcePoint" />
            <mxPoint x="752.9999999999995" y="301" as="targetPoint" />
          </mxGeometry>
        </mxCell>
        <mxCell id="KmuFEiy8gwxwUrOHWcom-94" style="edgeStyle=orthogonalEdgeStyle;rounded=0;orthogonalLoop=1;jettySize=auto;html=1;entryX=0;entryY=0.5;entryDx=0;entryDy=0;exitX=0.987;exitY=0.939;exitDx=0;exitDy=0;exitPerimeter=0;" parent="1" source="KmuFEiy8gwxwUrOHWcom-4" target="KmuFEiy8gwxwUrOHWcom-18" edge="1">
          <mxGeometry relative="1" as="geometry">
            <Array as="points">
              <mxPoint x="560" y="503" />
              <mxPoint x="560" y="647" />
            </Array>
          </mxGeometry>
        </mxCell>
        <mxCell id="KmuFEiy8gwxwUrOHWcom-108" style="edgeStyle=orthogonalEdgeStyle;rounded=0;orthogonalLoop=1;jettySize=auto;html=1;entryX=0;entryY=0.5;entryDx=0;entryDy=0;" parent="1" source="KmuFEiy8gwxwUrOHWcom-4" target="KmuFEiy8gwxwUrOHWcom-109" edge="1">
          <mxGeometry relative="1" as="geometry">
            <mxPoint x="608" y="-405" as="targetPoint" />
            <Array as="points">
              <mxPoint x="408" y="-312" />
            </Array>
          </mxGeometry>
        </mxCell>
        <mxCell id="KmuFEiy8gwxwUrOHWcom-116" style="edgeStyle=orthogonalEdgeStyle;rounded=0;orthogonalLoop=1;jettySize=auto;html=1;entryX=0;entryY=0.5;entryDx=0;entryDy=0;" parent="1" target="KmuFEiy8gwxwUrOHWcom-115" edge="1">
          <mxGeometry relative="1" as="geometry">
            <Array as="points" />
            <mxPoint x="468" y="-26.999999999999886" as="sourcePoint" />
            <mxPoint x="753" y="-29" as="targetPoint" />
          </mxGeometry>
        </mxCell>
        <mxCell id="KmuFEiy8gwxwUrOHWcom-119" style="edgeStyle=orthogonalEdgeStyle;rounded=0;orthogonalLoop=1;jettySize=auto;html=1;entryX=0.5;entryY=0;entryDx=0;entryDy=0;exitX=0.303;exitY=1;exitDx=0;exitDy=0;exitPerimeter=0;" parent="1" source="KmuFEiy8gwxwUrOHWcom-4" target="KmuFEiy8gwxwUrOHWcom-38" edge="1">
          <mxGeometry relative="1" as="geometry" />
        </mxCell>
        <mxCell id="KmuFEiy8gwxwUrOHWcom-120" style="edgeStyle=orthogonalEdgeStyle;rounded=0;orthogonalLoop=1;jettySize=auto;html=1;entryX=0.5;entryY=0;entryDx=0;entryDy=0;exitX=0.75;exitY=1;exitDx=0;exitDy=0;" parent="1" source="KmuFEiy8gwxwUrOHWcom-4" target="KmuFEiy8gwxwUrOHWcom-13" edge="1">
          <mxGeometry relative="1" as="geometry">
            <Array as="points">
              <mxPoint x="438" y="595" />
              <mxPoint x="469" y="595" />
            </Array>
          </mxGeometry>
        </mxCell>
        <mxCell id="KmuFEiy8gwxwUrOHWcom-4" value="vets-api" style="rounded=1;whiteSpace=wrap;html=1;" parent="1" vertex="1">
          <mxGeometry x="348" y="-135" width="120" height="680" as="geometry" />
        </mxCell>
        <mxCell id="KmuFEiy8gwxwUrOHWcom-13" value="PPMS" style="strokeWidth=2;html=1;shape=datastore;whiteSpace=wrap;" parent="1" vertex="1">
          <mxGeometry x="429" y="649" width="80" height="80" as="geometry" />
        </mxCell>
        <mxCell id="r6deMkh1V9EVogIIxijR-12" style="edgeStyle=orthogonalEdgeStyle;rounded=0;orthogonalLoop=1;jettySize=auto;html=1;exitX=1;exitY=0.75;exitDx=0;exitDy=0;entryX=0;entryY=0.5;entryDx=0;entryDy=0;" edge="1" parent="1" source="KmuFEiy8gwxwUrOHWcom-18" target="r6deMkh1V9EVogIIxijR-4">
          <mxGeometry relative="1" as="geometry" />
        </mxCell>
        <mxCell id="KmuFEiy8gwxwUrOHWcom-18" value="Facilities API" style="rounded=1;whiteSpace=wrap;html=1;" parent="1" vertex="1">
          <mxGeometry x="857" y="617" width="120" height="60" as="geometry" />
        </mxCell>
        <mxCell id="KmuFEiy8gwxwUrOHWcom-102" style="edgeStyle=orthogonalEdgeStyle;rounded=0;orthogonalLoop=1;jettySize=auto;html=1;entryX=0.5;entryY=1;entryDx=0;entryDy=0;" parent="1" source="KmuFEiy8gwxwUrOHWcom-19" target="KmuFEiy8gwxwUrOHWcom-18" edge="1">
          <mxGeometry relative="1" as="geometry" />
        </mxCell>
        <mxCell id="KmuFEiy8gwxwUrOHWcom-118" style="edgeStyle=orthogonalEdgeStyle;rounded=0;orthogonalLoop=1;jettySize=auto;html=1;entryX=0.5;entryY=0;entryDx=0;entryDy=0;exitX=0.5;exitY=1;exitDx=0;exitDy=0;" parent="1" source="KmuFEiy8gwxwUrOHWcom-19" target="KmuFEiy8gwxwUrOHWcom-40" edge="1">
          <mxGeometry relative="1" as="geometry">
            <Array as="points">
              <mxPoint x="917" y="877" />
              <mxPoint x="917" y="877" />
            </Array>
          </mxGeometry>
        </mxCell>
        <mxCell id="KmuFEiy8gwxwUrOHWcom-19" value="Community care eligibility API" style="rounded=1;whiteSpace=wrap;html=1;" parent="1" vertex="1">
          <mxGeometry x="857" y="717" width="120" height="60" as="geometry" />
        </mxCell>
        <mxCell id="KmuFEiy8gwxwUrOHWcom-144" style="edgeStyle=orthogonalEdgeStyle;rounded=0;orthogonalLoop=1;jettySize=auto;html=1;entryX=0;entryY=0.75;entryDx=0;entryDy=0;exitX=1;exitY=0.5;exitDx=0;exitDy=0;" parent="1" source="KmuFEiy8gwxwUrOHWcom-22" target="KmuFEiy8gwxwUrOHWcom-24" edge="1">
          <mxGeometry relative="1" as="geometry">
            <Array as="points">
              <mxPoint x="873" y="160" />
              <mxPoint x="1073" y="160" />
            </Array>
            <mxPoint x="1060" y="170" as="targetPoint" />
          </mxGeometry>
        </mxCell>
        <mxCell id="KmuFEiy8gwxwUrOHWcom-22" value="mobile facility&lt;div&gt;service v2&lt;/div&gt;" style="rounded=1;whiteSpace=wrap;html=1;" parent="1" vertex="1">
          <mxGeometry x="753" y="128" width="120" height="60" as="geometry" />
        </mxCell>
        <mxCell id="KmuFEiy8gwxwUrOHWcom-85" style="edgeStyle=orthogonalEdgeStyle;rounded=0;orthogonalLoop=1;jettySize=auto;html=1;entryX=0;entryY=0.5;entryDx=0;entryDy=0;exitX=1;exitY=0.5;exitDx=0;exitDy=0;" parent="1" source="KmuFEiy8gwxwUrOHWcom-24" target="KmuFEiy8gwxwUrOHWcom-25" edge="1">
          <mxGeometry relative="1" as="geometry">
            <Array as="points">
              <mxPoint x="1313" y="145" />
            </Array>
          </mxGeometry>
        </mxCell>
        <mxCell id="KmuFEiy8gwxwUrOHWcom-24" value="cdw service" style="rounded=1;whiteSpace=wrap;html=1;" parent="1" vertex="1">
          <mxGeometry x="1073" y="115" width="120" height="60" as="geometry" />
        </mxCell>
        <mxCell id="KmuFEiy8gwxwUrOHWcom-25" value="CDW" style="strokeWidth=2;html=1;shape=datastore;whiteSpace=wrap;" parent="1" vertex="1">
          <mxGeometry x="1265" y="106" width="80" height="80" as="geometry" />
        </mxCell>
        <mxCell id="KmuFEiy8gwxwUrOHWcom-71" style="edgeStyle=orthogonalEdgeStyle;rounded=0;orthogonalLoop=1;jettySize=auto;html=1;entryX=0;entryY=0.5;entryDx=0;entryDy=0;exitX=0.5;exitY=1;exitDx=0;exitDy=0;" parent="1" source="KmuFEiy8gwxwUrOHWcom-26" target="KmuFEiy8gwxwUrOHWcom-19" edge="1">
          <mxGeometry relative="1" as="geometry">
            <Array as="points">
              <mxPoint x="813" y="747" />
            </Array>
            <mxPoint x="759" y="325" as="sourcePoint" />
          </mxGeometry>
        </mxCell>
        <mxCell id="KmuFEiy8gwxwUrOHWcom-26" value="mobile cce service" style="rounded=1;whiteSpace=wrap;html=1;" parent="1" vertex="1">
          <mxGeometry x="753" y="207" width="120" height="60" as="geometry" />
        </mxCell>
        <mxCell id="KmuFEiy8gwxwUrOHWcom-148" style="edgeStyle=orthogonalEdgeStyle;rounded=0;orthogonalLoop=1;jettySize=auto;html=1;entryX=0;entryY=0.25;entryDx=0;entryDy=0;exitX=0.5;exitY=1;exitDx=0;exitDy=0;" parent="1" source="KmuFEiy8gwxwUrOHWcom-29" target="KmuFEiy8gwxwUrOHWcom-24" edge="1">
          <mxGeometry relative="1" as="geometry">
            <Array as="points">
              <mxPoint x="983" y="130" />
            </Array>
            <mxPoint x="993" y="91" as="sourcePoint" />
            <mxPoint x="1073" y="149" as="targetPoint" />
          </mxGeometry>
        </mxCell>
        <mxCell id="KmuFEiy8gwxwUrOHWcom-150" style="edgeStyle=orthogonalEdgeStyle;rounded=0;orthogonalLoop=1;jettySize=auto;html=1;entryX=0;entryY=0.5;entryDx=0;entryDy=0;exitX=0.5;exitY=0;exitDx=0;exitDy=0;" parent="1" source="KmuFEiy8gwxwUrOHWcom-29" target="KmuFEiy8gwxwUrOHWcom-34" edge="1">
          <mxGeometry relative="1" as="geometry">
            <Array as="points">
              <mxPoint x="983" y="-45" />
              <mxPoint x="1040" y="-45" />
              <mxPoint x="1040" y="-105" />
            </Array>
          </mxGeometry>
        </mxCell>
        <mxCell id="KmuFEiy8gwxwUrOHWcom-152" style="edgeStyle=orthogonalEdgeStyle;rounded=0;orthogonalLoop=1;jettySize=auto;html=1;exitX=0.75;exitY=0;exitDx=0;exitDy=0;entryX=0;entryY=0.5;entryDx=0;entryDy=0;" parent="1" source="KmuFEiy8gwxwUrOHWcom-29" target="KmuFEiy8gwxwUrOHWcom-136" edge="1">
          <mxGeometry relative="1" as="geometry" />
        </mxCell>
        <mxCell id="KmuFEiy8gwxwUrOHWcom-153" style="edgeStyle=orthogonalEdgeStyle;rounded=0;orthogonalLoop=1;jettySize=auto;html=1;exitX=1;exitY=0.5;exitDx=0;exitDy=0;entryX=0;entryY=0.5;entryDx=0;entryDy=0;" parent="1" source="KmuFEiy8gwxwUrOHWcom-29" target="KmuFEiy8gwxwUrOHWcom-35" edge="1">
          <mxGeometry relative="1" as="geometry" />
        </mxCell>
        <mxCell id="r6deMkh1V9EVogIIxijR-19" style="edgeStyle=orthogonalEdgeStyle;rounded=0;orthogonalLoop=1;jettySize=auto;html=1;exitX=0.75;exitY=1;exitDx=0;exitDy=0;entryX=0;entryY=0.5;entryDx=0;entryDy=0;" edge="1" parent="1" source="KmuFEiy8gwxwUrOHWcom-29" target="r6deMkh1V9EVogIIxijR-17">
          <mxGeometry relative="1" as="geometry" />
        </mxCell>
        <mxCell id="KmuFEiy8gwxwUrOHWcom-29" value="mobile appointment service v2" style="rounded=1;whiteSpace=wrap;html=1;" parent="1" vertex="1">
          <mxGeometry x="923" y="25" width="120" height="60" as="geometry" />
        </mxCell>
        <mxCell id="KmuFEiy8gwxwUrOHWcom-32" value="VistA" style="strokeWidth=2;html=1;shape=datastore;whiteSpace=wrap;" parent="1" vertex="1">
          <mxGeometry x="1458" y="15" width="80" height="80" as="geometry" />
        </mxCell>
        <mxCell id="KmuFEiy8gwxwUrOHWcom-33" value="TMP" style="strokeWidth=2;html=1;shape=datastore;whiteSpace=wrap;" parent="1" vertex="1">
          <mxGeometry x="1043" y="-352" width="80" height="80" as="geometry" />
        </mxCell>
        <mxCell id="KmuFEiy8gwxwUrOHWcom-77" style="edgeStyle=orthogonalEdgeStyle;rounded=0;orthogonalLoop=1;jettySize=auto;html=1;entryX=0;entryY=0.5;entryDx=0;entryDy=0;" parent="1" source="KmuFEiy8gwxwUrOHWcom-34" target="KmuFEiy8gwxwUrOHWcom-37" edge="1">
          <mxGeometry relative="1" as="geometry" />
        </mxCell>
        <mxCell id="KmuFEiy8gwxwUrOHWcom-103" style="edgeStyle=orthogonalEdgeStyle;rounded=0;orthogonalLoop=1;jettySize=auto;html=1;entryX=0.5;entryY=1;entryDx=0;entryDy=0;exitX=0.425;exitY=0;exitDx=0;exitDy=0;exitPerimeter=0;" parent="1" source="KmuFEiy8gwxwUrOHWcom-34" target="KmuFEiy8gwxwUrOHWcom-33" edge="1">
          <mxGeometry relative="1" as="geometry">
            <Array as="points">
              <mxPoint x="1124" y="-235" />
              <mxPoint x="1083" y="-235" />
            </Array>
          </mxGeometry>
        </mxCell>
        <mxCell id="KmuFEiy8gwxwUrOHWcom-34" value="video visit service" style="rounded=1;whiteSpace=wrap;html=1;" parent="1" vertex="1">
          <mxGeometry x="1073" y="-135" width="120" height="60" as="geometry" />
        </mxCell>
        <mxCell id="KmuFEiy8gwxwUrOHWcom-74" style="edgeStyle=orthogonalEdgeStyle;rounded=0;orthogonalLoop=1;jettySize=auto;html=1;entryX=0;entryY=0.5;entryDx=0;entryDy=0;" parent="1" source="KmuFEiy8gwxwUrOHWcom-35" target="KmuFEiy8gwxwUrOHWcom-36" edge="1">
          <mxGeometry relative="1" as="geometry" />
        </mxCell>
        <mxCell id="KmuFEiy8gwxwUrOHWcom-35" value="VistA scheduling provider" style="rounded=1;whiteSpace=wrap;html=1;" parent="1" vertex="1">
          <mxGeometry x="1073" y="25" width="120" height="60" as="geometry" />
        </mxCell>
        <mxCell id="KmuFEiy8gwxwUrOHWcom-64" style="edgeStyle=orthogonalEdgeStyle;rounded=0;orthogonalLoop=1;jettySize=auto;html=1;entryX=0;entryY=0.5;entryDx=0;entryDy=0;" parent="1" source="KmuFEiy8gwxwUrOHWcom-36" target="KmuFEiy8gwxwUrOHWcom-32" edge="1">
          <mxGeometry relative="1" as="geometry" />
        </mxCell>
        <mxCell id="KmuFEiy8gwxwUrOHWcom-36" value="Acheron" style="rounded=1;whiteSpace=wrap;html=1;" parent="1" vertex="1">
          <mxGeometry x="1243" y="25" width="120" height="60" as="geometry" />
        </mxCell>
        <mxCell id="KmuFEiy8gwxwUrOHWcom-37" value="VCM" style="strokeWidth=2;html=1;shape=datastore;whiteSpace=wrap;" parent="1" vertex="1">
          <mxGeometry x="1265" y="-145" width="80" height="80" as="geometry" />
        </mxCell>
        <mxCell id="KmuFEiy8gwxwUrOHWcom-38" value="VA Profile" style="strokeWidth=2;html=1;shape=datastore;whiteSpace=wrap;" parent="1" vertex="1">
          <mxGeometry x="321" y="649" width="80" height="80" as="geometry" />
        </mxCell>
        <mxCell id="KmuFEiy8gwxwUrOHWcom-40" value="ESR" style="strokeWidth=2;html=1;shape=datastore;whiteSpace=wrap;" parent="1" vertex="1">
          <mxGeometry x="877" y="887" width="80" height="80" as="geometry" />
        </mxCell>
        <mxCell id="KmuFEiy8gwxwUrOHWcom-57" value="VistA" style="strokeWidth=2;html=1;shape=datastore;whiteSpace=wrap;" parent="1" vertex="1">
          <mxGeometry x="1468" y="25" width="80" height="80" as="geometry" />
        </mxCell>
        <mxCell id="KmuFEiy8gwxwUrOHWcom-58" value="VistA" style="strokeWidth=2;html=1;shape=datastore;whiteSpace=wrap;" parent="1" vertex="1">
          <mxGeometry x="1478" y="35" width="80" height="80" as="geometry" />
        </mxCell>
        <mxCell id="KmuFEiy8gwxwUrOHWcom-68" style="edgeStyle=orthogonalEdgeStyle;rounded=0;orthogonalLoop=1;jettySize=auto;html=1;entryX=0.5;entryY=0;entryDx=0;entryDy=0;" parent="1" source="KmuFEiy8gwxwUrOHWcom-60" target="KmuFEiy8gwxwUrOHWcom-22" edge="1">
          <mxGeometry relative="1" as="geometry" />
        </mxCell>
        <mxCell id="KmuFEiy8gwxwUrOHWcom-135" style="edgeStyle=orthogonalEdgeStyle;rounded=0;orthogonalLoop=1;jettySize=auto;html=1;exitX=1;exitY=0.5;exitDx=0;exitDy=0;" parent="1" source="KmuFEiy8gwxwUrOHWcom-60" target="KmuFEiy8gwxwUrOHWcom-29" edge="1">
          <mxGeometry relative="1" as="geometry" />
        </mxCell>
        <mxCell id="KmuFEiy8gwxwUrOHWcom-154" style="edgeStyle=orthogonalEdgeStyle;rounded=0;orthogonalLoop=1;jettySize=auto;html=1;exitX=0.75;exitY=1;exitDx=0;exitDy=0;entryX=0;entryY=0.5;entryDx=0;entryDy=0;" parent="1" source="KmuFEiy8gwxwUrOHWcom-60" target="KmuFEiy8gwxwUrOHWcom-24" edge="1">
          <mxGeometry relative="1" as="geometry">
            <Array as="points">
              <mxPoint x="843" y="110" />
              <mxPoint x="960" y="110" />
              <mxPoint x="960" y="145" />
            </Array>
          </mxGeometry>
        </mxCell>
        <mxCell id="KmuFEiy8gwxwUrOHWcom-60" value="vaos service" style="rounded=1;whiteSpace=wrap;html=1;" parent="1" vertex="1">
          <mxGeometry x="753" y="25" width="120" height="60" as="geometry" />
        </mxCell>
        <mxCell id="KmuFEiy8gwxwUrOHWcom-97" value="Veteran Services Platform" style="text;html=1;strokeColor=none;fillColor=none;align=center;verticalAlign=middle;whiteSpace=wrap;rounded=0;" parent="1" vertex="1">
          <mxGeometry x="78" y="-195" width="150" height="20" as="geometry" />
        </mxCell>
        <mxCell id="KmuFEiy8gwxwUrOHWcom-99" value="VAMF/MAP" style="text;html=1;strokeColor=none;fillColor=none;align=center;verticalAlign=middle;whiteSpace=wrap;rounded=0;" parent="1" vertex="1">
          <mxGeometry x="721" y="-195" width="108" height="20" as="geometry" />
        </mxCell>
        <mxCell id="KmuFEiy8gwxwUrOHWcom-101" value="Lighthouse" style="text;html=1;strokeColor=none;fillColor=none;align=center;verticalAlign=middle;whiteSpace=wrap;rounded=0;" parent="1" vertex="1">
          <mxGeometry x="928" y="567" width="150" height="20" as="geometry" />
        </mxCell>
        <mxCell id="KmuFEiy8gwxwUrOHWcom-110" style="edgeStyle=orthogonalEdgeStyle;rounded=0;orthogonalLoop=1;jettySize=auto;html=1;entryX=0.5;entryY=1;entryDx=0;entryDy=0;" parent="1" source="KmuFEiy8gwxwUrOHWcom-107" target="KmuFEiy8gwxwUrOHWcom-109" edge="1">
          <mxGeometry relative="1" as="geometry" />
        </mxCell>
        <mxCell id="KmuFEiy8gwxwUrOHWcom-107" value="mobile mvi service" style="rounded=1;whiteSpace=wrap;html=1;" parent="1" vertex="1">
          <mxGeometry x="879" y="-135" width="120" height="60" as="geometry" />
        </mxCell>
        <mxCell id="KmuFEiy8gwxwUrOHWcom-109" value="MPI" style="strokeWidth=2;html=1;shape=datastore;whiteSpace=wrap;" parent="1" vertex="1">
          <mxGeometry x="899" y="-352" width="80" height="80" as="geometry" />
        </mxCell>
        <mxCell id="KmuFEiy8gwxwUrOHWcom-147" style="edgeStyle=orthogonalEdgeStyle;rounded=0;orthogonalLoop=1;jettySize=auto;html=1;entryX=0.5;entryY=1;entryDx=0;entryDy=0;" parent="1" source="KmuFEiy8gwxwUrOHWcom-115" target="KmuFEiy8gwxwUrOHWcom-107" edge="1">
          <mxGeometry relative="1" as="geometry" />
        </mxCell>
        <mxCell id="KmuFEiy8gwxwUrOHWcom-115" value="mobile oauth sts" style="rounded=1;whiteSpace=wrap;html=1;" parent="1" vertex="1">
          <mxGeometry x="753" y="-57" width="120" height="60" as="geometry" />
        </mxCell>
        <mxCell id="KmuFEiy8gwxwUrOHWcom-125" value="" style="strokeWidth=2;html=1;shape=datastore;whiteSpace=wrap;" parent="1" vertex="1">
          <mxGeometry x="-291" y="-305" width="60" height="60" as="geometry" />
        </mxCell>
        <mxCell id="KmuFEiy8gwxwUrOHWcom-126" value="Service/system that stores data" style="text;html=1;strokeColor=none;fillColor=none;align=center;verticalAlign=middle;whiteSpace=wrap;rounded=0;" parent="1" vertex="1">
          <mxGeometry x="-211" y="-295" width="190" height="20" as="geometry" />
        </mxCell>
        <mxCell id="KmuFEiy8gwxwUrOHWcom-127" value="" style="rounded=1;whiteSpace=wrap;html=1;" parent="1" vertex="1">
          <mxGeometry x="-301" y="-225" width="80" height="40" as="geometry" />
        </mxCell>
        <mxCell id="KmuFEiy8gwxwUrOHWcom-128" value="Service" style="text;html=1;strokeColor=none;fillColor=none;align=center;verticalAlign=middle;whiteSpace=wrap;rounded=0;" parent="1" vertex="1">
          <mxGeometry x="-211" y="-215" width="60" height="20" as="geometry" />
        </mxCell>
        <mxCell id="KmuFEiy8gwxwUrOHWcom-129" value="" style="rounded=0;whiteSpace=wrap;html=1;fillColor=#EDEDED;" parent="1" vertex="1">
          <mxGeometry x="-301" y="-165" width="80" height="60" as="geometry" />
        </mxCell>
        <mxCell id="KmuFEiy8gwxwUrOHWcom-130" value="Platform" style="text;html=1;strokeColor=none;fillColor=none;align=center;verticalAlign=middle;whiteSpace=wrap;rounded=0;" parent="1" vertex="1">
          <mxGeometry x="-201" y="-165" width="50" height="20" as="geometry" />
        </mxCell>
        <mxCell id="KmuFEiy8gwxwUrOHWcom-131" value="" style="rounded=0;whiteSpace=wrap;html=1;" parent="1" vertex="1">
          <mxGeometry x="-301" y="-85" width="80" height="40" as="geometry" />
        </mxCell>
        <mxCell id="KmuFEiy8gwxwUrOHWcom-132" value="Veteran facing application" style="text;html=1;strokeColor=none;fillColor=none;align=center;verticalAlign=middle;whiteSpace=wrap;rounded=0;" parent="1" vertex="1">
          <mxGeometry x="-211" y="-75" width="160" height="20" as="geometry" />
        </mxCell>
        <mxCell id="KmuFEiy8gwxwUrOHWcom-140" style="edgeStyle=orthogonalEdgeStyle;rounded=0;orthogonalLoop=1;jettySize=auto;html=1;entryX=0;entryY=0.625;entryDx=0;entryDy=0;entryPerimeter=0;" parent="1" source="KmuFEiy8gwxwUrOHWcom-136" target="KmuFEiy8gwxwUrOHWcom-137" edge="1">
          <mxGeometry relative="1" as="geometry" />
        </mxCell>
        <mxCell id="KmuFEiy8gwxwUrOHWcom-136" value="mobile hsrm service" style="rounded=1;whiteSpace=wrap;html=1;" parent="1" vertex="1">
          <mxGeometry x="1073" y="-55" width="120" height="60" as="geometry" />
        </mxCell>
        <mxCell id="KmuFEiy8gwxwUrOHWcom-137" value="HSRM" style="strokeWidth=2;html=1;shape=datastore;whiteSpace=wrap;" parent="1" vertex="1">
          <mxGeometry x="1458" y="-75" width="80" height="80" as="geometry" />
        </mxCell>
        <mxCell id="r6deMkh1V9EVogIIxijR-1" value="Authenticated Experience" style="rounded=0;whiteSpace=wrap;html=1;" vertex="1" parent="1">
          <mxGeometry x="118" y="220" width="120" height="60" as="geometry" />
        </mxCell>
        <mxCell id="r6deMkh1V9EVogIIxijR-2" style="edgeStyle=orthogonalEdgeStyle;rounded=0;orthogonalLoop=1;jettySize=auto;html=1;entryX=0;entryY=0.107;entryDx=0;entryDy=0;entryPerimeter=0;" edge="1" parent="1">
          <mxGeometry relative="1" as="geometry">
            <mxPoint x="238" y="249.5" as="sourcePoint" />
            <mxPoint x="348" y="249.5" as="targetPoint" />
          </mxGeometry>
        </mxCell>
        <mxCell id="r6deMkh1V9EVogIIxijR-3" value="VAST" style="strokeWidth=2;html=1;shape=datastore;whiteSpace=wrap;" vertex="1" parent="1">
          <mxGeometry x="1118" y="598" width="80" height="80" as="geometry" />
        </mxCell>
        <mxCell id="r6deMkh1V9EVogIIxijR-4" value="CMS" style="strokeWidth=2;html=1;shape=datastore;whiteSpace=wrap;" vertex="1" parent="1">
          <mxGeometry x="1118" y="697" width="80" height="80" as="geometry" />
        </mxCell>
        <mxCell id="r6deMkh1V9EVogIIxijR-10" style="edgeStyle=orthogonalEdgeStyle;rounded=0;orthogonalLoop=1;jettySize=auto;html=1;exitX=1;exitY=0.5;exitDx=0;exitDy=0;entryX=0;entryY=0.613;entryDx=0;entryDy=0;entryPerimeter=0;" edge="1" parent="1" source="KmuFEiy8gwxwUrOHWcom-18" target="r6deMkh1V9EVogIIxijR-3">
          <mxGeometry relative="1" as="geometry">
            <Array as="points">
              <mxPoint x="988" y="647" />
              <mxPoint x="988" y="647" />
            </Array>
          </mxGeometry>
        </mxCell>
        <mxCell id="r6deMkh1V9EVogIIxijR-16" value="Oracle&lt;div&gt;Health&lt;/div&gt;" style="strokeWidth=2;html=1;shape=datastore;whiteSpace=wrap;" vertex="1" parent="1">
          <mxGeometry x="1458" y="307" width="80" height="80" as="geometry" />
        </mxCell>
        <mxCell id="r6deMkh1V9EVogIIxijR-21" style="edgeStyle=orthogonalEdgeStyle;rounded=0;orthogonalLoop=1;jettySize=auto;html=1;exitX=1;exitY=0.5;exitDx=0;exitDy=0;entryX=0.5;entryY=0;entryDx=0;entryDy=0;" edge="1" parent="1" source="r6deMkh1V9EVogIIxijR-17" target="r6deMkh1V9EVogIIxijR-16">
          <mxGeometry relative="1" as="geometry" />
        </mxCell>
        <mxCell id="r6deMkh1V9EVogIIxijR-17" value="Cerner Scheduling Provider R/O" style="rounded=1;whiteSpace=wrap;html=1;" vertex="1" parent="1">
          <mxGeometry x="1072" y="217" width="120" height="60" as="geometry" />
        </mxCell>
        <mxCell id="r6deMkh1V9EVogIIxijR-22" value="VCM" style="strokeWidth=2;html=1;shape=datastore;whiteSpace=wrap;" vertex="1" parent="1">
          <mxGeometry x="1143" y="-352" width="80" height="80" as="geometry" />
        </mxCell>
        <mxCell id="r6deMkh1V9EVogIIxijR-23" style="edgeStyle=orthogonalEdgeStyle;rounded=0;orthogonalLoop=1;jettySize=auto;html=1;entryX=0.5;entryY=1;entryDx=0;entryDy=0;" edge="1" parent="1" target="r6deMkh1V9EVogIIxijR-22">
          <mxGeometry relative="1" as="geometry">
            <Array as="points">
              <mxPoint x="1143" y="-135" />
              <mxPoint x="1143" y="-235" />
              <mxPoint x="1184" y="-235" />
              <mxPoint x="1184" y="-272" />
            </Array>
            <mxPoint x="1143" y="-135" as="sourcePoint" />
            <mxPoint x="1093" y="-262" as="targetPoint" />
          </mxGeometry>
        </mxCell>
        <mxCell id="r6deMkh1V9EVogIIxijR-24" value="VETSAPI&lt;div&gt;Patient&lt;/div&gt;&lt;div&gt;Gateway&lt;/div&gt;" style="rounded=1;whiteSpace=wrap;html=1;" vertex="1" parent="1">
          <mxGeometry x="596" y="25" width="120" height="60" as="geometry" />
        </mxCell>
        <mxCell id="r6deMkh1V9EVogIIxijR-25" value="" style="endArrow=classic;html=1;rounded=0;exitX=1.008;exitY=0.279;exitDx=0;exitDy=0;exitPerimeter=0;entryX=0;entryY=0.5;entryDx=0;entryDy=0;" edge="1" parent="1" source="KmuFEiy8gwxwUrOHWcom-4" target="r6deMkh1V9EVogIIxijR-24">
          <mxGeometry width="50" height="50" relative="1" as="geometry">
            <mxPoint x="929" y="225" as="sourcePoint" />
            <mxPoint x="979" y="175" as="targetPoint" />
          </mxGeometry>
        </mxCell>
        <mxCell id="r6deMkh1V9EVogIIxijR-27" value="Cerner FHIR&lt;div&gt;Adapter&lt;/div&gt;" style="rounded=1;whiteSpace=wrap;html=1;" vertex="1" parent="1">
          <mxGeometry x="1073" y="316" width="120" height="60" as="geometry" />
        </mxCell>
        <mxCell id="r6deMkh1V9EVogIIxijR-29" value="" style="endArrow=classic;html=1;rounded=0;exitX=0.75;exitY=1;exitDx=0;exitDy=0;entryX=0;entryY=0.5;entryDx=0;entryDy=0;edgeStyle=orthogonalEdgeStyle;" edge="1" parent="1" source="r6deMkh1V9EVogIIxijR-24" target="r6deMkh1V9EVogIIxijR-27">
          <mxGeometry width="50" height="50" relative="1" as="geometry">
            <mxPoint x="882.9999999999995" y="432" as="sourcePoint" />
            <mxPoint x="979" y="175" as="targetPoint" />
          </mxGeometry>
        </mxCell>
        <mxCell id="r6deMkh1V9EVogIIxijR-30" value="" style="endArrow=classic;html=1;rounded=0;exitX=1;exitY=0.5;exitDx=0;exitDy=0;entryX=0;entryY=0.5;entryDx=0;entryDy=0;edgeStyle=orthogonalEdgeStyle;" edge="1" parent="1" source="r6deMkh1V9EVogIIxijR-27" target="r6deMkh1V9EVogIIxijR-16">
          <mxGeometry width="50" height="50" relative="1" as="geometry">
            <mxPoint x="893" y="442" as="sourcePoint" />
            <mxPoint x="1083" y="442" as="targetPoint" />
          </mxGeometry>
        </mxCell>
        <mxCell id="r6deMkh1V9EVogIIxijR-32" value="" style="endArrow=classic;html=1;rounded=0;entryX=0.5;entryY=0;entryDx=0;entryDy=0;exitX=1;exitY=0.75;exitDx=0;exitDy=0;edgeStyle=orthogonalEdgeStyle;" edge="1" parent="1" source="KmuFEiy8gwxwUrOHWcom-22" target="KmuFEiy8gwxwUrOHWcom-18">
          <mxGeometry width="50" height="50" relative="1" as="geometry">
            <mxPoint x="780" y="420" as="sourcePoint" />
            <mxPoint x="830" y="370" as="targetPoint" />
          </mxGeometry>
        </mxCell>
        <mxCell id="r6deMkh1V9EVogIIxijR-33" value="Cerner Location Service" style="rounded=1;whiteSpace=wrap;html=1;" vertex="1" parent="1">
          <mxGeometry x="1072" y="385" width="120" height="60" as="geometry" />
        </mxCell>
        <mxCell id="r6deMkh1V9EVogIIxijR-34" value="" style="endArrow=classic;html=1;rounded=0;exitX=1;exitY=0.75;exitDx=0;exitDy=0;entryX=0.003;entryY=0.309;entryDx=0;entryDy=0;entryPerimeter=0;edgeStyle=orthogonalEdgeStyle;" edge="1" parent="1" source="r6deMkh1V9EVogIIxijR-24" target="KmuFEiy8gwxwUrOHWcom-22">
          <mxGeometry width="50" height="50" relative="1" as="geometry">
            <mxPoint x="810" y="400" as="sourcePoint" />
            <mxPoint x="860" y="350" as="targetPoint" />
          </mxGeometry>
        </mxCell>
        <mxCell id="r6deMkh1V9EVogIIxijR-35" value="Cerner Location Service" style="rounded=1;whiteSpace=wrap;html=1;" vertex="1" parent="1">
          <mxGeometry x="1073" y="455" width="120" height="60" as="geometry" />
        </mxCell>
        <mxCell id="r6deMkh1V9EVogIIxijR-36" value="" style="endArrow=classic;html=1;rounded=0;exitX=0.5;exitY=1;exitDx=0;exitDy=0;edgeStyle=orthogonalEdgeStyle;" edge="1" parent="1" source="r6deMkh1V9EVogIIxijR-24" target="r6deMkh1V9EVogIIxijR-33">
          <mxGeometry width="50" height="50" relative="1" as="geometry">
            <mxPoint x="674.5" y="85" as="sourcePoint" />
            <mxPoint x="1070" y="424" as="targetPoint" />
            <Array as="points">
              <mxPoint x="656" y="424" />
            </Array>
          </mxGeometry>
        </mxCell>
        <mxCell id="r6deMkh1V9EVogIIxijR-37" value="" style="endArrow=classic;html=1;rounded=0;entryX=0;entryY=0.5;entryDx=0;entryDy=0;edgeStyle=orthogonalEdgeStyle;exitX=0.25;exitY=1;exitDx=0;exitDy=0;" edge="1" parent="1" source="r6deMkh1V9EVogIIxijR-24" target="r6deMkh1V9EVogIIxijR-35">
          <mxGeometry width="50" height="50" relative="1" as="geometry">
            <mxPoint x="652" y="98" as="sourcePoint" />
            <mxPoint x="1082" y="434" as="targetPoint" />
            <Array as="points" />
          </mxGeometry>
        </mxCell>
      </root>
    </mxGraphModel>
  </diagram>
</mxfile>
